<?xml version="1.0" encoding="utf-8"?>
<!-- Generator: Adobe Illustrator 23.0.1, SVG Export Plug-In . SVG Version: 6.00 Build 0)  -->
<svg version="1.1" id="Layer_1" xmlns="http://www.w3.org/2000/svg" xmlns:xlink="http://www.w3.org/1999/xlink" x="0px" y="0px"
	 viewBox="0 0 792 612" style="enable-background:new 0 0 792 612;" xml:space="preserve">
<style type="text/css">
	.st0{fill:#C12026;stroke:#C12026;stroke-miterlimit:10;}
	.st1{fill:#C12026;stroke:#C12026;stroke-width:0.25;stroke-miterlimit:10;}
	.st2{fill:#C12026;stroke:#C12026;stroke-width:3;stroke-miterlimit:10;}
	.st3{fill:#CF5257;stroke:#CF5257;stroke-width:2;stroke-miterlimit:10;}
	.st4{fill:#F7A8AB;stroke:#F7A8AB;stroke-width:2;stroke-miterlimit:10;}
	.st5{fill:#CF5257;}
</style>
<g id="Shadow">
	<path class="st0" d="M175.64,451.91c-2.03,0-4.05-0.47-5.91-1.42c-4.53-2.31-111.29-57.41-144.45-134.26
		c-6.93-15.9-8.46-27.58-8.72-30.14c-0.66-4.8-0.99-9.7-0.99-14.58c0-7.71,0.82-15.39,2.43-22.82c5.11-23.65,18.3-45.17,37.15-60.56
		c19.13-15.62,43.28-24.22,68.02-24.22c18.5,0,36.48,4.7,52.47,13.64c15.99-8.95,33.97-13.64,52.47-13.64
		c24.74,0,48.9,8.6,68.02,24.22c18.85,15.4,32.04,36.91,37.16,60.58c1.61,7.42,2.43,15.1,2.43,22.81c0,4.88-0.33,9.78-0.99,14.58
		c-0.27,2.56-1.79,14.24-8.74,30.19c-33.14,76.8-139.91,131.91-144.43,134.22C179.69,451.44,177.66,451.91,175.64,451.91z
		 M123.17,189.93c-38.16,0-71.69,27.03-79.73,64.26c-1.22,5.64-1.85,11.46-1.85,17.31c0,3.77,0.26,7.56,0.78,11.26
		c0.03,0.23,0.06,0.45,0.08,0.68c0,0.01,0.97,9.27,6.71,22.43c25.31,58.65,126.48,118.22,126.48,118.22s101.16-59.56,126.46-118.18
		c5.76-13.21,6.73-22.46,6.73-22.55c0.02-0.23,0.04-0.37,0.07-0.6c0.51-3.7,0.78-7.49,0.78-11.26c0-5.85-0.62-11.67-1.84-17.3
		c-8.04-37.25-41.57-64.28-79.73-64.28c-16.19,0-31.83,4.73-45.24,13.68c-4.37,2.92-10.08,2.92-14.46,0
		C155,194.66,139.35,189.93,123.17,189.93z"/>
	<path class="st1" d="M249.93,387.94c-24.3-19.18-70.59-63.2-83.74-108.78c-3.47-11.86-3.28-19.85-3.3-19.86l0.01-0.59
		c-0.03-3.21,0.15-6.47,0.56-9.69c0.64-5,1.79-9.89,3.45-14.57c10.89-30.88,40.63-45.57,74.49-43.05
		c13.83,1.03,26.51,4.53,37.24,13.15l0.96,0.53c1.6,0.79,3.26,1.31,5.04,1.55c5.77,0.74,11.04-3.35,11.77-9.12
		c0.11-0.93,0.14-1.89,0.07-2.83c-0.19-2.58-1.09-5.08-2.81-6.72c-13.83-12-30.75-19.57-48.96-21.89
		c-21.1-2.69-42.64,2.03-60.65,13.28c-17.76,11.09-31.35,28.01-38.28,47.63c-2.18,6.17-3.71,12.64-4.54,19.2
		c-0.53,4.16-0.79,8.38-0.74,12.55c-0.06,2.21-0.02,12.35,4.16,26.66c9.97,34.57,36.23,66.5,60.45,90.12
		c10.92,10.64,21.27,19.46,29.67,26.18L249.93,387.94z"/>
	<circle class="st2" cx="233.34" cy="259.42" r="34.92"/>
</g>
<g id="Front">
	<path class="st3" d="M326.75,245.6c-5.08-23.53-18.19-44.9-36.93-60.21c-19.01-15.52-43.01-24.08-67.6-24.08
		c-18.38,0-36.13,6.47-52.02,15.36c-15.88-8.89-33.87-15.36-52.25-15.36c-24.58,0-48.59,8.55-67.6,24.08
		c-18.73,15.3-31.85,36.68-36.92,60.19c-1.61,7.39-2.42,15.02-2.42,22.68c0,4.85,0.33,9.72,0.99,14.49
		c0.26,2.55,1.77,14.16,8.67,29.96c32.95,76.36,139.06,131.13,143.55,133.43c1.84,0.93,3.85,1.4,5.87,1.4s4.03-0.47,5.88-1.4
		c4.5-2.3,110.6-57.06,143.53-133.38c6.9-15.85,8.42-27.46,8.69-30.01c0.66-4.77,0.98-9.64,0.98-14.49
		C329.17,260.61,328.35,252.98,326.75,245.6z M302.53,279.45c-0.03,0.22-0.05,0.37-0.07,0.59c-0.01,0.09-0.97,9.29-6.69,22.42
		c-25.14,58.25-125.67,117.44-125.67,117.44S69.55,360.7,44.41,302.42c-5.7-13.08-6.67-22.28-6.67-22.29
		c-0.02-0.22-0.04-0.45-0.07-0.68c-0.52-3.68-0.78-7.44-0.78-11.19c0-5.81,0.62-11.6,1.84-17.2c7.98-37,41.31-63.87,79.23-63.87
		c16.09,0,31.63,4.71,44.96,13.6c4.35,2.9,10.02,2.9,14.37,0c13.33-8.9,28.87-13.6,44.95-13.6c37.93,0,71.25,26.87,79.23,63.88
		c1.22,5.59,1.83,11.38,1.83,17.19C303.29,272.01,303.03,275.77,302.53,279.45z"/>
	<circle class="st3" cx="230.57" cy="256.96" r="34.29"/>
	<path class="st4" d="M289.77,191.61c0,4.63-2.55,8.87-6.53,11.2c-4.74,2.77-9.65,2-14.15-0.83c-3.97-2.5-7.58-5.13-11.86-7.12
		c-7.03-3.26-14.53-5.5-22.18-6.69c-10.68-1.66-21.63-1.22-32.19,1.08c-1.73,0.38-3.46,0.8-5.16,1.28
		c-17.73,5.88-32.02,18.21-39.52,36.9c-1.87,4.64-3.24,9.53-4.1,14.54c-0.55,3.23-0.88,6.5-0.98,9.75l-0.04,0.59
		c0.01,0.01-0.51,8.07,2.47,20.17c10.36,42.61,49.46,83.03,73.76,104.85l-18.13,14.03c-6.21-5.7-13.34-12.51-20.47-20.07
		c-23.41-24.84-48.52-58.16-57.1-93.44c-3.61-14.61-3.22-24.83-3.06-27.06c0.13-4.2,0.57-8.44,1.28-12.62
		c1.12-6.59,2.93-13.04,5.4-19.17c7.82-19.49,22.96-36.17,40.62-46.39c10.28-5.95,21.72-9.7,33.52-11.01
		c9-0.99,18.04-0.55,26.9,1.02c5.95,1.06,11.91,2.75,17.73,4.55c5.69,1.76,11.33,3.8,16.64,6.49c3.21,1.63,6.31,3.51,9.17,5.69
		c0.5,0.38,1,0.78,1.49,1.18c2.01,1.67,4.02,3.58,5.32,5.89C289.47,187.98,289.77,189.85,289.77,191.61z"/>
</g>
<g>
	<path class="st5" d="M357.12,314.42H344.3v-37.26c0-5.37,1.09-10.43,3.28-15.2c2.18-4.77,5.17-8.89,8.94-12.37
		c3.77-3.48,8.17-6.23,13.19-8.27c5.02-2.04,10.41-3.06,16.17-3.06v12.82c-3.98,0-7.7,0.67-11.18,2.01
		c-3.48,1.34-6.53,3.2-9.17,5.59c-2.63,2.38-4.69,5.17-6.19,8.35c-1.49,3.18-2.24,6.56-2.24,10.13V314.42z"/>
	<path class="st5" d="M427.92,238.26c5.37,0,10.41,1.02,15.13,3.06c4.72,2.04,8.84,4.79,12.37,8.27c3.53,3.48,6.31,7.6,8.35,12.37
		c2.04,4.77,3.05,9.84,3.05,15.2s-1.02,10.41-3.05,15.13c-2.04,4.72-4.82,8.82-8.35,12.3c-3.53,3.48-7.65,6.24-12.37,8.27
		c-4.72,2.04-9.76,3.06-15.13,3.06c-5.37,0-10.38-1.02-15.05-3.06c-4.67-2.04-8.77-4.79-12.3-8.27c-3.53-3.48-6.31-7.58-8.35-12.3
		c-2.04-4.72-3.06-9.76-3.06-15.13s1.02-10.43,3.06-15.2c2.04-4.77,4.82-8.89,8.35-12.37c3.53-3.48,7.63-6.23,12.3-8.27
		C417.53,239.28,422.55,238.26,427.92,238.26z M427.92,251.08c-3.58,0-6.96,0.67-10.13,2.01s-5.96,3.2-8.35,5.59
		s-4.25,5.17-5.59,8.35c-1.34,3.18-2.01,6.56-2.01,10.13s0.67,6.96,2.01,10.13c1.34,3.18,3.21,5.94,5.59,8.27
		c2.38,2.34,5.17,4.2,8.35,5.59c3.18,1.39,6.56,2.09,10.13,2.09c3.58,0,6.96-0.69,10.13-2.09c3.18-1.39,5.96-3.25,8.35-5.59
		c2.38-2.33,4.25-5.09,5.59-8.27c1.34-3.18,2.01-6.56,2.01-10.13s-0.67-6.95-2.01-10.13c-1.34-3.18-3.2-5.96-5.59-8.35
		s-5.17-4.25-8.35-5.59S431.49,251.08,427.92,251.08z"/>
	<path class="st5" d="M516.75,238.26c5.37,0,10.41,1.02,15.13,3.06c4.72,2.04,8.84,4.79,12.37,8.27c3.53,3.48,6.31,7.6,8.35,12.37
		c2.04,4.77,3.06,9.84,3.06,15.2s-1.02,10.41-3.06,15.13c-2.04,4.72-4.82,8.82-8.35,12.3c-3.53,3.48-7.65,6.24-12.37,8.27
		c-4.72,2.04-9.76,3.06-15.13,3.06c-5.37,0-10.38-1.02-15.05-3.06c-4.67-2.04-8.77-4.79-12.3-8.27c-3.53-3.48-6.31-7.58-8.35-12.3
		c-2.04-4.72-3.06-9.76-3.06-15.13s1.02-10.43,3.06-15.2c2.04-4.77,4.82-8.89,8.35-12.37c3.53-3.48,7.63-6.23,12.3-8.27
		C506.36,239.28,511.38,238.26,516.75,238.26z M516.75,251.08c-3.58,0-6.96,0.67-10.13,2.01c-3.18,1.34-5.96,3.2-8.35,5.59
		s-4.25,5.17-5.59,8.35c-1.34,3.18-2.01,6.56-2.01,10.13s0.67,6.96,2.01,10.13c1.34,3.18,3.2,5.94,5.59,8.27
		c2.38,2.34,5.17,4.2,8.35,5.59c3.18,1.39,6.56,2.09,10.13,2.09s6.95-0.69,10.13-2.09c3.18-1.39,5.96-3.25,8.35-5.59
		c2.38-2.33,4.25-5.09,5.59-8.27c1.34-3.18,2.01-6.56,2.01-10.13s-0.67-6.95-2.01-10.13c-1.34-3.18-3.2-5.96-5.59-8.35
		s-5.17-4.25-8.35-5.59C523.7,251.75,520.32,251.08,516.75,251.08z"/>
	<path class="st5" d="M599.02,238.26c4.77,0,9.17,1.04,13.19,3.13c4.02,2.09,7.43,4.92,10.21,8.5c2.88-3.58,6.31-6.41,10.28-8.5
		c3.97-2.09,8.4-3.13,13.26-3.13c4.07,0,7.92,0.8,11.55,2.38c3.63,1.59,6.78,3.73,9.46,6.41c2.68,2.68,4.82,5.84,6.41,9.46
		c1.59,3.63,2.38,7.48,2.38,11.55v46.35h-12.82v-46.35c0-2.38-0.45-4.59-1.34-6.63c-0.89-2.04-2.11-3.82-3.65-5.37
		c-1.54-1.54-3.33-2.76-5.37-3.65c-2.04-0.89-4.25-1.34-6.63-1.34s-4.62,0.45-6.71,1.34c-2.09,0.89-3.9,2.11-5.44,3.65
		c-1.54,1.54-2.76,3.33-3.65,5.37c-0.89,2.04-1.34,4.25-1.34,6.63v46.35h-12.67v-46.35c0-2.38-0.45-4.59-1.34-6.63
		c-0.89-2.04-2.14-3.82-3.73-5.37c-1.59-1.54-3.41-2.76-5.44-3.65c-2.04-0.89-4.25-1.34-6.63-1.34s-4.62,0.45-6.71,1.34
		c-2.09,0.89-3.9,2.11-5.44,3.65c-1.54,1.54-2.76,3.33-3.65,5.37c-0.89,2.04-1.34,4.25-1.34,6.63v46.35h-12.67v-46.35
		c0-4.07,0.79-7.92,2.38-11.55c1.59-3.63,3.73-6.78,6.41-9.46c2.68-2.68,5.84-4.82,9.46-6.41
		C591.09,239.06,594.94,238.26,599.02,238.26z"/>
	<path class="st5" d="M690.08,205.33h12.67v89.72c0,2.29,1.07,4.22,3.2,5.81c2.14,1.59,4.7,2.38,7.68,2.38v12.67
		c-3.28,0-6.33-0.55-9.17-1.64c-2.83-1.09-5.32-2.58-7.45-4.47c-2.14-1.89-3.83-4.1-5.07-6.63c-1.24-2.53-1.86-5.24-1.86-8.12
		V205.33z"/>
	<path class="st5" d="M752.83,315.77c-4.08,0-7.92-0.8-11.55-2.38c-3.63-1.59-6.78-3.73-9.46-6.41s-4.82-5.84-6.41-9.46
		c-1.59-3.63-2.38-7.48-2.38-11.55v-46.2h12.82v46.2c0,2.38,0.45,4.62,1.34,6.71c0.89,2.09,2.11,3.9,3.65,5.44
		c1.54,1.54,3.33,2.76,5.37,3.65c2.04,0.89,4.25,1.34,6.63,1.34s4.62-0.45,6.71-1.34c2.09-0.89,3.9-2.11,5.44-3.65
		c1.54-1.54,2.76-3.35,3.65-5.44c0.89-2.09,1.34-4.32,1.34-6.71v-46.2h12.67v79.59c0,4.17-0.85,8.07-2.53,11.7
		c-1.69,3.63-4,6.78-6.93,9.46c-2.93,2.68-6.39,4.79-10.36,6.33c-3.97,1.54-8.25,2.31-12.82,2.31v-12.67c2.78,0,5.39-0.45,7.82-1.34
		c2.43-0.89,4.55-2.14,6.33-3.73c1.79-1.59,3.2-3.41,4.25-5.44c1.04-2.04,1.57-4.25,1.57-6.63v-8.94c-2.49,1.69-5.17,3.01-8.05,3.95
		C759.03,315.29,756,315.77,752.83,315.77z"/>
</g>
</svg>
