<?xml version="1.0" encoding="utf-8"?>
<!-- Generator: Adobe Illustrator 23.0.1, SVG Export Plug-In . SVG Version: 6.00 Build 0)  -->
<svg version="1.1" id="Logo_1_" xmlns="http://www.w3.org/2000/svg" xmlns:xlink="http://www.w3.org/1999/xlink" x="0px" y="0px"
	 viewBox="0 0 792 612" style="enable-background:new 0 0 792 612;" xml:space="preserve">
<style type="text/css">
	.st0{fill:#C1080C;stroke:#C1080C;stroke-miterlimit:10;}
	.st1{fill:#C1080C;stroke:#C1080C;stroke-width:0.25;stroke-miterlimit:10;}
	.st2{fill:none;stroke:#C1080C;stroke-width:8;stroke-miterlimit:10;}
	.st3{fill:#CE5257;stroke:#CE5257;stroke-width:2;stroke-miterlimit:10;}
	.st4{fill:none;stroke:#CE5257;stroke-width:10;stroke-miterlimit:10;}
	.st5{fill:#F7A8AB;stroke:#F7A8AB;stroke-width:2;stroke-miterlimit:10;}
	.st6{display:none;fill:url(#Gradient_1_);}
</style>
<g id="Shadow">
	<path class="st0" d="M398.9,603c-4.11,0-8.21-0.96-11.97-2.87c-9.17-4.68-225.4-116.28-292.56-271.92
		c-14.04-32.2-17.13-55.85-17.67-61.05c-1.33-9.72-2-19.65-2-29.53c0-15.61,1.66-31.16,4.93-46.22
		c10.34-47.9,37.06-91.48,75.24-122.66c38.74-31.64,87.66-49.06,137.77-49.06c37.47,0,73.88,9.51,106.26,27.62
		c32.38-18.12,68.79-27.62,106.26-27.62c50.1,0,99.03,17.42,137.77,49.06c38.18,31.18,64.9,74.75,75.25,122.7
		c3.27,15.03,4.93,30.58,4.93,46.19c0,9.88-0.67,19.81-2,29.53c-0.54,5.19-3.63,28.85-17.71,61.14
		c-67.12,155.54-283.35,267.15-292.52,271.83C407.11,602.04,403.01,603,398.9,603z M292.64,72.41
		c-77.29,0-145.2,54.74-161.47,130.15c-2.48,11.43-3.74,23.21-3.74,35.06c0,7.64,0.53,15.31,1.57,22.8
		c0.06,0.46,0.12,0.92,0.16,1.38c0,0.02,1.97,18.77,13.59,45.42C194.01,426,398.9,546.66,398.9,546.66s204.88-120.63,256.11-239.35
		c11.66-26.75,13.63-45.49,13.64-45.68c0.04-0.46,0.08-0.75,0.14-1.21c1.04-7.49,1.57-15.17,1.57-22.8
		c0-11.85-1.25-23.63-3.73-35.03c-16.29-75.45-84.19-130.18-161.48-130.18c-32.78,0-64.46,9.58-91.62,27.71
		c-8.86,5.91-20.41,5.91-29.28,0C357.1,81.99,325.42,72.41,292.64,72.41z"/>
	<path class="st1" d="M549.37,473.45c-49.22-38.84-142.97-128-169.6-220.32c-7.02-24.01-6.65-40.21-6.68-40.23l0.03-1.19
		c-0.06-6.51,0.31-13.1,1.14-19.62c1.29-10.12,3.63-20.03,6.99-29.5c22.06-62.55,82.28-92.3,150.86-87.19
		c28,2.09,53.69,9.18,75.43,26.64l1.95,1.08c3.25,1.59,6.6,2.65,10.21,3.13c11.69,1.49,22.35-6.78,23.84-18.47
		c0.23-1.89,0.29-3.82,0.15-5.73c-0.38-5.23-2.21-10.29-5.7-13.6c-28-24.3-62.27-39.64-99.16-44.34
		c-42.74-5.44-86.36,4.11-122.83,26.9c-35.97,22.46-63.49,56.72-77.52,96.47c-4.42,12.5-7.52,25.59-9.2,38.89
		c-1.08,8.43-1.59,16.97-1.5,25.41c-0.12,4.48-0.05,25.01,8.43,53.99c20.2,70.01,73.37,134.69,122.42,182.51
		c22.11,21.55,43.07,39.42,60.09,53.03L549.37,473.45z"/>
	
		<ellipse transform="matrix(0.7071 -0.7071 0.7071 0.7071 0.3528 427.1317)" class="st2" cx="515.77" cy="213.14" rx="70.73" ry="70.73"/>
</g>
<g id="Front">
	<path class="st3" d="M704.96,185.16c-10.29-47.65-36.85-90.94-74.79-121.94c-38.5-31.44-87.11-48.76-136.91-48.76
		c-37.23,0-73.17,13.1-105.36,31.1c-32.17-18.01-68.59-31.1-105.83-31.1c-49.79,0-98.41,17.31-136.91,48.76
		c-37.94,30.99-64.5,74.29-74.77,121.9c-3.26,14.97-4.9,30.43-4.9,45.93c0,9.83,0.67,19.69,2,29.35
		c0.52,5.17,3.59,28.67,17.56,60.68c66.74,154.65,281.63,265.57,290.74,270.23c3.72,1.89,7.8,2.84,11.88,2.84s8.16-0.95,11.9-2.84
		c9.11-4.66,224-115.57,290.7-270.13c13.98-32.1,17.05-55.61,17.59-60.77c1.33-9.66,1.98-19.52,1.98-29.35
		C709.85,215.56,708.2,200.1,704.96,185.16z M655.89,253.72c-0.07,0.45-0.11,0.75-0.15,1.2c-0.02,0.19-1.97,18.81-13.55,45.41
		C591.28,418.3,387.67,538.18,387.67,538.18s-203.62-119.9-254.54-237.94c-11.55-26.5-13.51-45.13-13.51-45.14
		c-0.04-0.45-0.09-0.92-0.15-1.37c-1.05-7.45-1.57-15.07-1.57-22.67c0-11.77,1.25-23.49,3.72-34.83
		c16.17-74.94,83.66-129.35,160.46-129.35c32.59,0,64.07,9.53,91.06,27.55c8.82,5.88,20.29,5.88,29.1,0
		c26.99-18.02,58.47-27.55,91.04-27.55c76.81,0,144.3,54.41,160.47,129.37c2.47,11.32,3.71,23.04,3.71,34.81
		C657.44,238.65,656.92,246.27,655.89,253.72z"/>
	<circle class="st4" cx="509.16" cy="209.16" r="69.44"/>
	<path class="st5" d="M630.06,75.82c0,9.38-5.17,17.97-13.23,22.68c-9.59,5.61-19.54,4.06-28.65-1.68
		c-8.04-5.06-15.35-10.38-24.03-14.41c-14.23-6.6-29.42-11.14-44.92-13.55c-21.64-3.37-43.81-2.48-65.2,2.19
		c-3.51,0.76-7,1.63-10.46,2.59c-35.9,11.9-64.85,36.88-80.04,74.74c-3.79,9.4-6.57,19.31-8.3,29.45
		c-1.12,6.54-1.78,13.17-1.99,19.74l-0.08,1.19c0.02,0.02-1.04,16.34,5.01,40.85c20.98,86.29,100.16,168.16,149.38,212.36
		l-36.72,28.41c-12.57-11.54-27.02-25.33-41.46-40.64c-47.42-50.3-98.27-117.79-115.65-189.24c-7.32-29.59-6.52-50.29-6.2-54.81
		c0.27-8.51,1.15-17.1,2.6-25.55c2.26-13.34,5.94-26.4,10.94-38.82c15.84-39.48,46.51-73.26,82.27-93.96
		c20.81-12.05,43.99-19.65,67.89-22.29c18.23-2.01,36.53-1.11,54.48,2.06c12.06,2.14,24.13,5.57,35.91,9.21
		c11.52,3.57,22.94,7.7,33.71,13.15c6.51,3.3,12.77,7.1,18.58,11.53c1.02,0.77,2.02,1.57,3.01,2.38c4.07,3.38,8.14,7.26,10.77,11.92
		C629.45,68.46,630.06,72.25,630.06,75.82z"/>
</g>
<linearGradient id="Gradient_1_" gradientUnits="userSpaceOnUse" x1="477.917" y1="159.6553" x2="504.6399" y2="127.2301" gradientTransform="matrix(1.0184 -7.032901e-03 7.032901e-03 -1.0184 -10.3275 618.6178)">
	<stop  offset="0.2448" style="stop-color:#FFFFFF"/>
	<stop  offset="0.3054" style="stop-color:#DDDFE0"/>
	<stop  offset="0.4117" style="stop-color:#AEB0B3"/>
	<stop  offset="0.5182" style="stop-color:#888A8C"/>
	<stop  offset="0.6225" style="stop-color:#696B6D"/>
	<stop  offset="0.7243" style="stop-color:#4F4F51"/>
	<stop  offset="0.8227" style="stop-color:#343335"/>
	<stop  offset="0.9163" style="stop-color:#121213"/>
	<stop  offset="1" style="stop-color:#000000"/>
</linearGradient>
<polygon id="Gradient" class="st6" points="472.68,480.98 507.63,453.37 498.47,444.95 464.71,473.04 "/>
</svg>
