<?xml version="1.0" encoding="utf-8"?>
<!-- Generator: Adobe Illustrator 23.0.1, SVG Export Plug-In . SVG Version: 6.00 Build 0)  -->
<svg version="1.1" id="Layer_1" xmlns="http://www.w3.org/2000/svg" xmlns:xlink="http://www.w3.org/1999/xlink" x="0px" y="0px"
	 viewBox="0 0 1077.34 305.37" style="enable-background:new 0 0 1077.34 305.37;" xml:space="preserve">
<style type="text/css">
	.st0{fill:#C12026;stroke:#C12026;stroke-miterlimit:10;}
	.st1{fill:#C12026;stroke:#C12026;stroke-width:0.25;stroke-miterlimit:10;}
	.st2{fill:#C12026;stroke:#C12026;stroke-width:3;stroke-miterlimit:10;}
	.st3{fill:#CF5257;stroke:#CF5257;stroke-width:2;stroke-miterlimit:10;}
	.st4{fill:#F7A8AB;stroke:#F7A8AB;stroke-width:2;stroke-miterlimit:10;}
	.st5{fill:#CF5257;}
</style>
<g id="Shadow">
	<path class="st0" d="M182.39,295.89c-1.99,0-3.98-0.47-5.81-1.39c-4.45-2.27-109.32-56.4-141.89-131.88
		C27.89,147,26.39,135.53,26.13,133c-0.65-4.71-0.97-9.53-0.97-14.32c0-7.57,0.81-15.11,2.39-22.42
		c5.01-23.23,17.97-44.37,36.49-59.49c18.79-15.35,42.51-23.79,66.82-23.79c18.17,0,35.83,4.61,51.54,13.4
		c15.7-8.79,33.36-13.4,51.54-13.4c24.3,0,48.03,8.45,66.82,23.79c18.52,15.12,31.48,36.25,36.5,59.51
		c1.59,7.29,2.39,14.83,2.39,22.4c0,4.79-0.32,9.61-0.97,14.32c-0.26,2.52-1.76,13.99-8.59,29.65
		C297.52,238.1,192.65,292.23,188.2,294.5C186.38,295.42,184.39,295.89,182.39,295.89z M130.86,38.55
		c-37.49,0-70.42,26.55-78.31,63.12c-1.2,5.54-1.81,11.26-1.81,17c0,3.71,0.26,7.43,0.76,11.06c0.03,0.22,0.06,0.45,0.08,0.67
		c0,0.01,0.96,9.1,6.59,22.03c24.86,57.61,124.23,116.13,124.23,116.13s99.37-58.5,124.21-116.08c5.65-12.97,6.61-22.06,6.62-22.15
		c0.02-0.22,0.04-0.36,0.07-0.59c0.5-3.63,0.76-7.36,0.76-11.06c0-5.75-0.61-11.46-1.81-16.99c-7.9-36.59-40.83-63.14-78.32-63.14
		c-15.9,0-31.26,4.65-44.44,13.44c-4.3,2.87-9.9,2.87-14.2,0C162.12,43.2,146.76,38.55,130.86,38.55z"/>
	<path class="st1" d="M255.37,233.05c-23.87-18.84-69.34-62.08-82.26-106.85c-3.4-11.64-3.23-19.5-3.24-19.51l0.01-0.58
		c-0.03-3.16,0.15-6.35,0.55-9.52c0.63-4.91,1.76-9.71,3.39-14.31C184.53,51.95,213.74,37.52,247,40
		c13.58,1.01,26.04,4.45,36.58,12.92l0.95,0.52c1.58,0.77,3.2,1.29,4.95,1.52c5.67,0.72,10.84-3.29,11.56-8.96
		c0.11-0.92,0.14-1.85,0.07-2.78c-0.18-2.54-1.07-4.99-2.76-6.6c-13.58-11.79-30.2-19.23-48.09-21.5
		c-20.73-2.64-41.88,1.99-59.57,13.05c-17.45,10.89-30.79,27.51-37.6,46.79c-2.14,6.06-3.65,12.41-4.46,18.86
		c-0.52,4.09-0.77,8.23-0.73,12.32c-0.06,2.17-0.02,12.13,4.09,26.18c9.8,33.95,35.58,65.32,59.37,88.52
		c10.72,10.45,20.89,19.12,29.14,25.72L255.37,233.05z"/>
	<circle class="st2" cx="239.08" cy="106.81" r="34.3"/>
</g>
<g id="Front">
	<path class="st3" d="M330.83,93.24c-4.99-23.11-17.87-44.11-36.27-59.14c-18.67-15.25-42.25-23.65-66.4-23.65
		c-18.06,0-35.49,6.35-51.1,15.08c-15.6-8.73-33.27-15.08-51.33-15.08c-24.15,0-47.73,8.4-66.4,23.65
		c-18.4,15.03-31.28,36.03-36.26,59.12c-1.58,7.26-2.38,14.76-2.38,22.28c0,4.77,0.32,9.55,0.97,14.23
		c0.25,2.51,1.74,13.9,8.52,29.43c32.37,75,136.59,128.8,141.01,131.06c1.8,0.92,3.78,1.38,5.76,1.38c1.98,0,3.96-0.46,5.77-1.38
		c4.42-2.26,108.64-56.05,140.99-131.01c6.78-15.57,8.27-26.97,8.53-29.47c0.65-4.69,0.96-9.47,0.96-14.23
		C333.2,107.98,332.4,100.48,330.83,93.24z M307.03,126.49c-0.03,0.22-0.05,0.36-0.07,0.58c-0.01,0.09-0.96,9.12-6.57,22.02
		c-24.69,57.21-123.44,115.36-123.44,115.36S78.19,206.3,53.5,149.05c-5.6-12.85-6.55-21.89-6.55-21.89
		c-0.02-0.22-0.04-0.45-0.07-0.66c-0.51-3.61-0.76-7.31-0.76-10.99c0-5.71,0.61-11.39,1.8-16.89c7.84-36.35,40.57-62.73,77.82-62.73
		c15.81,0,31.07,4.62,44.16,13.36c4.28,2.85,9.84,2.85,14.11,0c13.09-8.74,28.36-13.36,44.15-13.36c37.25,0,69.98,26.39,77.83,62.74
		c1.2,5.49,1.8,11.17,1.8,16.88C307.79,119.18,307.53,122.87,307.03,126.49z"/>
	<circle class="st3" cx="236.36" cy="104.39" r="33.68"/>
	<path class="st4" d="M294.51,40.21c0,4.55-2.51,8.72-6.42,11c-4.65,2.72-9.48,1.97-13.9-0.81c-3.9-2.45-7.44-5.03-11.65-6.99
		c-6.9-3.2-14.27-5.4-21.79-6.57c-10.5-1.63-21.25-1.2-31.62,1.06c-1.7,0.37-3.39,0.79-5.07,1.26
		c-17.41,5.77-31.45,17.89-38.82,36.25c-1.84,4.56-3.19,9.37-4.03,14.28c-0.54,3.17-0.86,6.39-0.97,9.57l-0.04,0.58
		c0.01,0.01-0.5,7.92,2.43,19.81c10.18,41.85,48.58,81.56,72.45,102.99l-17.81,13.78c-6.1-5.6-13.1-12.29-20.11-19.71
		c-23-24.4-47.66-57.13-56.09-91.78c-3.55-14.35-3.16-24.39-3.01-26.58c0.13-4.13,0.56-8.29,1.26-12.39
		c1.1-6.47,2.88-12.8,5.31-18.83c7.68-19.15,22.56-35.53,39.9-45.57c10.09-5.84,21.33-9.53,32.93-10.81
		c8.84-0.97,17.72-0.54,26.42,1c5.85,1.04,11.7,2.7,17.42,4.47c5.59,1.73,11.13,3.73,16.35,6.38c3.16,1.6,6.19,3.44,9.01,5.59
		c0.49,0.37,0.98,0.76,1.46,1.15c1.97,1.64,3.95,3.52,5.22,5.78C294.21,36.64,294.51,38.47,294.51,40.21z"/>
</g>
<g>
	<path class="st5" d="M440.96,219.25h-18.17v-52.81c0-7.61,1.55-14.79,4.65-21.55c3.1-6.76,7.32-12.6,12.67-17.53
		c5.35-4.93,11.58-8.84,18.7-11.72c7.11-2.88,14.75-4.33,22.92-4.33v18.17c-5.63,0-10.92,0.95-15.84,2.85
		c-4.93,1.9-9.26,4.54-12.99,7.92c-3.73,3.38-6.65,7.32-8.77,11.83c-2.11,4.51-3.17,9.29-3.17,14.37V219.25z"/>
	<path class="st5" d="M541.3,111.3c7.61,0,14.75,1.45,21.44,4.33c6.69,2.89,12.53,6.8,17.53,11.72c5,4.93,8.94,10.77,11.83,17.53
		c2.88,6.76,4.33,13.94,4.33,21.55c0,7.6-1.45,14.75-4.33,21.44c-2.89,6.69-6.83,12.5-11.83,17.43c-5,4.93-10.85,8.84-17.53,11.72
		c-6.69,2.88-13.84,4.33-21.44,4.33c-7.6,0-14.72-1.45-21.33-4.33c-6.62-2.88-12.43-6.79-17.43-11.72
		c-5-4.93-8.95-10.74-11.83-17.43c-2.89-6.69-4.33-13.84-4.33-21.44c0-7.61,1.44-14.79,4.33-21.55c2.88-6.76,6.83-12.6,11.83-17.53
		c5-4.93,10.81-8.84,17.43-11.72C526.58,112.75,533.69,111.3,541.3,111.3z M541.3,129.47c-5.07,0-9.86,0.95-14.36,2.85
		c-4.51,1.9-8.45,4.54-11.83,7.92c-3.38,3.38-6.02,7.32-7.92,11.83c-1.9,4.51-2.85,9.29-2.85,14.37c0,5.07,0.95,9.86,2.85,14.36
		c1.9,4.51,4.54,8.42,7.92,11.72c3.38,3.31,7.32,5.95,11.83,7.92c4.51,1.97,9.29,2.96,14.36,2.96c5.07,0,9.86-0.98,14.37-2.96
		c4.5-1.97,8.45-4.61,11.83-7.92c3.38-3.31,6.02-7.21,7.92-11.72c1.9-4.51,2.85-9.29,2.85-14.36c0-5.07-0.95-9.86-2.85-14.37
		c-1.9-4.5-4.54-8.45-7.92-11.83s-7.32-6.02-11.83-7.92C551.15,130.42,546.37,129.47,541.3,129.47z"/>
	<path class="st5" d="M667.2,111.3c7.61,0,14.75,1.45,21.44,4.33c6.69,2.89,12.53,6.8,17.53,11.72c5,4.93,8.94,10.77,11.83,17.53
		c2.88,6.76,4.33,13.94,4.33,21.55c0,7.6-1.45,14.75-4.33,21.44c-2.89,6.69-6.83,12.5-11.83,17.43c-5,4.93-10.85,8.84-17.53,11.72
		c-6.69,2.88-13.84,4.33-21.44,4.33c-7.6,0-14.72-1.45-21.33-4.33c-6.62-2.88-12.43-6.79-17.43-11.72
		c-5-4.93-8.95-10.74-11.83-17.43c-2.89-6.69-4.33-13.84-4.33-21.44c0-7.61,1.44-14.79,4.33-21.55c2.88-6.76,6.83-12.6,11.83-17.53
		c5-4.93,10.81-8.84,17.43-11.72C652.48,112.75,659.59,111.3,667.2,111.3z M667.2,129.47c-5.07,0-9.86,0.95-14.36,2.85
		c-4.51,1.9-8.45,4.54-11.83,7.92s-6.02,7.32-7.92,11.83c-1.9,4.51-2.85,9.29-2.85,14.37c0,5.07,0.95,9.86,2.85,14.36
		c1.9,4.51,4.54,8.42,7.92,11.72c3.38,3.31,7.32,5.95,11.83,7.92c4.51,1.97,9.29,2.96,14.36,2.96c5.07,0,9.86-0.98,14.37-2.96
		c4.5-1.97,8.45-4.61,11.83-7.92c3.38-3.31,6.02-7.21,7.92-11.72c1.9-4.51,2.85-9.29,2.85-14.36c0-5.07-0.95-9.86-2.85-14.37
		c-1.9-4.5-4.54-8.45-7.92-11.83s-7.32-6.02-11.83-7.92C677.05,130.42,672.27,129.47,667.2,129.47z"/>
	<path class="st5" d="M783.8,111.3c6.76,0,12.99,1.48,18.7,4.44c5.7,2.96,10.53,6.97,14.47,12.04c4.08-5.07,8.94-9.08,14.58-12.04
		c5.63-2.96,11.9-4.44,18.8-4.44c5.77,0,11.23,1.13,16.37,3.38c5.14,2.25,9.61,5.28,13.41,9.08c3.8,3.8,6.83,8.28,9.08,13.41
		c2.25,5.14,3.38,10.6,3.38,16.37v65.7h-18.17v-65.7c0-3.38-0.63-6.51-1.9-9.4c-1.27-2.88-2.99-5.42-5.18-7.61
		c-2.19-2.18-4.72-3.91-7.6-5.17c-2.89-1.27-6.02-1.9-9.4-1.9s-6.55,0.63-9.51,1.9c-2.96,1.27-5.53,2.99-7.71,5.17
		c-2.18,2.19-3.91,4.72-5.18,7.61c-1.27,2.89-1.9,6.02-1.9,9.4v65.7H808.1v-65.7c0-3.38-0.63-6.51-1.9-9.4
		c-1.27-2.88-3.03-5.42-5.28-7.61c-2.25-2.18-4.83-3.91-7.71-5.17c-2.89-1.27-6.02-1.9-9.4-1.9s-6.55,0.63-9.51,1.9
		c-2.96,1.27-5.53,2.99-7.71,5.17c-2.18,2.19-3.91,4.72-5.17,7.61c-1.27,2.89-1.9,6.02-1.9,9.4v65.7h-17.96v-65.7
		c0-5.77,1.13-11.23,3.38-16.37c2.25-5.14,5.28-9.61,9.08-13.41c3.8-3.8,8.27-6.83,13.41-9.08
		C772.57,112.43,778.03,111.3,783.8,111.3z"/>
	<path class="st5" d="M912.87,64.61h17.96v127.17c0,3.24,1.51,5.99,4.54,8.24c3.03,2.25,6.65,3.38,10.88,3.38v17.96
		c-4.65,0-8.98-0.78-12.99-2.32s-7.54-3.66-10.56-6.34c-3.03-2.67-5.42-5.81-7.18-9.4c-1.76-3.59-2.64-7.43-2.64-11.51V64.61z"/>
	<path class="st5" d="M1001.8,221.15c-5.78,0-11.23-1.13-16.37-3.38c-5.14-2.25-9.61-5.28-13.41-9.08c-3.8-3.8-6.83-8.27-9.08-13.41
		c-2.25-5.14-3.38-10.59-3.38-16.37v-65.49h18.17v65.49c0,3.38,0.63,6.55,1.9,9.51c1.27,2.96,2.99,5.53,5.18,7.71
		c2.18,2.18,4.72,3.91,7.6,5.17c2.88,1.27,6.02,1.9,9.4,1.9s6.55-0.63,9.51-1.9s5.53-2.99,7.71-5.17c2.18-2.18,3.91-4.75,5.17-7.71
		c1.27-2.96,1.9-6.13,1.9-9.51v-65.49h17.96v112.8c0,5.92-1.2,11.44-3.59,16.58c-2.4,5.14-5.67,9.61-9.82,13.41
		c-4.16,3.8-9.05,6.79-14.68,8.98c-5.63,2.18-11.69,3.27-18.17,3.27v-17.96c3.94,0,7.64-0.63,11.09-1.9
		c3.45-1.27,6.44-3.03,8.98-5.28c2.54-2.25,4.54-4.83,6.02-7.71c1.48-2.89,2.22-6.02,2.22-9.4v-12.67c-3.52,2.4-7.32,4.26-11.41,5.6
		C1010.6,220.48,1006.31,221.15,1001.8,221.15z"/>
</g>
</svg>
